<svg width="375" height="397" viewBox="0 0 375 397" fill="none" xmlns="http://www.w3.org/2000/svg">
<path d="M67.6418 100.808L41.2123 79.6549C30.1327 70.7872 14.3552 70.8961 3.39896 79.9157L1 81.8907V396H374V8.6068L367.647 5.09067C355.814 -1.4579 341.062 0.720493 331.627 10.4097L283.457 59.8768C272.884 70.735 255.873 72.0017 243.808 62.829L209.135 36.4687C197.391 27.5398 180.898 28.4752 170.238 38.6748L107.128 99.0619C96.2638 109.458 79.3816 110.204 67.6418 100.808Z" fill="#78CFBA"/>
<path d="M0.682211 81.5047L0.5 81.6547V81.8907V396V396.5H1H374H374.5V396V8.6068V8.31205L374.242 8.16932L367.889 4.65319C355.858 -2.00452 340.861 0.210182 331.269 10.0609L283.099 59.5279C272.702 70.2053 255.974 71.4508 244.11 62.431L209.438 36.0706C197.498 26.9929 180.73 27.9439 169.893 38.3135L106.783 98.7006C96.0992 108.923 79.4984 109.657 67.9543 100.418L41.5247 79.2646C30.2605 70.2491 14.22 70.3597 3.08117 79.5297L0.682211 81.5047Z" stroke="#343A40" stroke-opacity="0.8"/>
</svg>
