<svg width="69" height="67" viewBox="0 0 69 67" fill="none" xmlns="http://www.w3.org/2000/svg">
<path d="M23.1999 56.544H25.0719V63H23.1999V56.544ZM24.1359 55.644C23.7919 55.644 23.5119 55.544 23.2959 55.344C23.0799 55.144 22.9719 54.896 22.9719 54.6C22.9719 54.304 23.0799 54.056 23.2959 53.856C23.5119 53.656 23.7919 53.556 24.1359 53.556C24.4799 53.556 24.7599 53.652 24.9759 53.844C25.1919 54.036 25.2999 54.276 25.2999 54.564C25.2999 54.876 25.1919 55.136 24.9759 55.344C24.7599 55.544 24.4799 55.644 24.1359 55.644ZM30.7333 56.448C31.5333 56.448 32.1773 56.688 32.6653 57.168C33.1613 57.648 33.4093 58.36 33.4093 59.304V63H31.5373V59.592C31.5373 59.08 31.4253 58.7 31.2013 58.452C30.9773 58.196 30.6533 58.068 30.2293 58.068C29.7573 58.068 29.3813 58.216 29.1013 58.512C28.8213 58.8 28.6813 59.232 28.6813 59.808V63H26.8093V56.544H28.5973V57.3C28.8453 57.028 29.1533 56.82 29.5213 56.676C29.8893 56.524 30.2933 56.448 30.7333 56.448ZM37.1582 56.688H38.8142V58.128H37.2062V63H35.3342V58.128H34.3382V56.688H35.3342V56.4C35.3342 55.664 35.5502 55.08 35.9822 54.648C36.4222 54.216 37.0382 54 37.8302 54C38.1102 54 38.3742 54.032 38.6222 54.096C38.8782 54.152 39.0902 54.236 39.2582 54.348L38.7662 55.704C38.5502 55.552 38.2982 55.476 38.0102 55.476C37.4422 55.476 37.1582 55.788 37.1582 56.412V56.688ZM42.7368 63.096C42.0568 63.096 41.4448 62.956 40.9008 62.676C40.3648 62.388 39.9448 61.992 39.6408 61.488C39.3368 60.984 39.1848 60.412 39.1848 59.772C39.1848 59.132 39.3368 58.56 39.6408 58.056C39.9448 57.552 40.3648 57.16 40.9008 56.88C41.4448 56.592 42.0568 56.448 42.7368 56.448C43.4168 56.448 44.0248 56.592 44.5608 56.88C45.0968 57.16 45.5168 57.552 45.8208 58.056C46.1248 58.56 46.2768 59.132 46.2768 59.772C46.2768 60.412 46.1248 60.984 45.8208 61.488C45.5168 61.992 45.0968 62.388 44.5608 62.676C44.0248 62.956 43.4168 63.096 42.7368 63.096ZM42.7368 61.56C43.2168 61.56 43.6088 61.4 43.9128 61.08C44.2248 60.752 44.3808 60.316 44.3808 59.772C44.3808 59.228 44.2248 58.796 43.9128 58.476C43.6088 58.148 43.2168 57.984 42.7368 57.984C42.2568 57.984 41.8608 58.148 41.5488 58.476C41.2368 58.796 41.0808 59.228 41.0808 59.772C41.0808 60.316 41.2368 60.752 41.5488 61.08C41.8608 61.4 42.2568 61.56 42.7368 61.56Z" fill="#78CFBA"/>
<path d="M32 36H36V32H32V36ZM34 4C22.96 4 14 12.96 14 24C14 35.04 22.96 44 34 44C45.04 44 54 35.04 54 24C54 12.96 45.04 4 34 4ZM34 40C25.18 40 18 32.82 18 24C18 15.18 25.18 8 34 8C42.82 8 50 15.18 50 24C50 32.82 42.82 40 34 40ZM34 12C29.58 12 26 15.58 26 20H30C30 17.8 31.8 16 34 16C36.2 16 38 17.8 38 20C38 24 32 23.5 32 30H36C36 25.5 42 25 42 20C42 15.58 38.42 12 34 12Z" fill="#56C6AB"/>
</svg>
