<svg width="118" height="139" viewBox="0 0 118 139" fill="none" xmlns="http://www.w3.org/2000/svg">
<path d="M71.1278 74.2284L70.8254 73.1917H70.8146L71.1278 74.2284Z" fill="#56C6AB"/>
<path d="M90.7514 46.4833L90.7405 46.5052L90.7624 46.4833H90.7514Z" fill="#56C6AB"/>
<path d="M90.0602 47.3041L90.7406 46.5049L90.7514 46.4833L90.0602 47.3041Z" fill="#56C6AB"/>
<path d="M85.0921 23.3389C80.8261 17.5177 76.7545 14.8825 72.9853 15.5197C67.3369 16.4701 64.7881 24.3865 64.6153 24.9481C64.1509 26.3089 63.7189 27.7237 63.3409 29.1709V29.2465V7.56006H54.6793V29.0305H54.6145C54.2473 27.6265 53.8369 26.2657 53.3833 24.9589C53.2105 24.3973 50.6509 16.4809 45.0133 15.5305C41.2333 14.8933 37.1725 17.5285 32.9065 23.3497C22.0417 38.1997 4.28654 74.5093 12.5053 91.1089C15.3025 96.7789 20.7889 99.7489 28.7917 99.9001H29.8717C54.4309 99.9001 56.3209 81.5401 56.3317 81.4105C56.4721 80.3305 58.9021 60.7609 56.9365 42.1093V42.0121L58.8697 39.9493H59.1613L61.0945 42.0121V42.1525C59.1289 60.7825 61.5697 80.3197 61.6993 81.3673C61.6993 81.5509 63.6001 99.9001 88.1701 99.9001H89.2501C97.2529 99.7273 102.739 96.7681 105.537 91.1089C113.712 74.5093 95.9569 38.1997 85.0921 23.3389ZM54.1717 81.1945C54.1717 81.3673 52.4653 97.7617 29.8501 97.7509H28.8349C21.6961 97.5997 16.8577 95.0509 14.4385 90.1909C6.46814 74.0449 25.4113 37.2385 34.6561 24.5809C38.0365 19.9693 41.2225 17.5609 43.9225 17.5609C44.1651 17.5624 44.4071 17.5841 44.6461 17.6257C49.0633 18.3709 51.3097 25.5097 51.3313 25.5745C52.5091 29.094 53.3871 32.7069 53.9557 36.3745V36.5041C52.8757 37.8865 51.0829 40.2841 49.1389 42.9841C48.2781 42.8944 47.4466 42.6203 46.7012 42.1805C45.9557 41.7406 45.3137 41.1454 44.8189 40.4353C43.9745 38.8447 43.6 37.0467 43.7389 35.2513H43.8793H44.5273C46.2985 35.2513 49.1929 34.8193 50.4997 32.2165L48.5665 31.2553C47.6809 33.0265 45.3265 33.1453 44.1061 33.0913H44.0305C44.2001 31.9608 44.4564 30.8451 44.7973 29.7541L42.7561 29.0629C42.6481 29.3761 40.1749 36.8173 43.0045 41.5477L43.2421 41.9257C41.9543 41.7413 40.6551 41.6475 39.3541 41.6449V41.5477C39.3753 40.0971 39.0988 38.6577 38.5415 37.3183C37.9842 35.979 37.158 34.7682 36.1141 33.7609L34.7425 35.4241C35.5577 36.2399 36.1983 37.2131 36.6253 38.2844C37.0524 39.3557 37.2569 40.5028 37.2265 41.6557V41.8609C33.3922 42.0642 29.703 43.3941 26.6209 45.6841L27.9385 47.2609C30.2021 45.643 32.8204 44.5912 35.5741 44.1937V44.1937C34.2349 45.8137 32.8957 48.1465 33.8569 50.2741L35.8117 49.4209C35.0233 47.6929 37.8637 44.7769 38.9221 43.8913C41.8494 43.8499 44.765 44.269 47.5621 45.1333V45.1333C44.7433 49.1401 42.0217 53.3413 41.2873 55.5229L41.2117 55.6849C40.9417 56.1493 40.6609 56.6893 40.3801 57.2941H40.2937C38.4799 57.1112 36.6478 57.2724 34.8937 57.7693V57.7045C32.3557 54.1081 25.3465 56.1493 24.5257 56.4085L25.1629 58.4713C26.7073 57.9961 30.9733 57.1537 32.7229 58.5577L32.7877 58.6333C30.9463 59.5737 29.4633 61.0909 28.5649 62.9533L30.5089 63.8821C32.5501 59.6269 37.1185 59.2489 39.4513 59.3569H39.5701C38.0738 63.615 37.5894 68.1631 38.1553 72.6409L38.0797 72.7165C37.7665 73.0189 36.9997 73.7965 36.0601 74.8765C33.3925 77.4361 28.5001 81.1621 23.5429 79.8769L23.0029 81.9721C26.0086 82.6823 29.1713 82.2432 31.8697 80.7409C30.1766 83.3405 29.1117 86.2985 28.7593 89.3809L30.9193 89.5321C31.2541 84.7477 35.1313 79.4881 37.6369 76.5721C37.9825 76.2373 38.2849 75.9241 38.5549 75.6433L38.6197 75.5785C38.9225 77.1088 39.3156 78.6198 39.7969 80.1037C40.4125 82.0909 41.6221 87.8689 39.9049 90.7417L41.7517 91.8217C44.3221 87.5017 41.9569 79.7581 41.8489 79.4233C40.8478 76.3903 40.2842 73.2301 40.1749 70.0381V69.8653C41.6556 72.2851 43.8631 74.1751 46.4821 75.2653L47.2381 73.1809C46.9249 73.0621 39.8941 70.3729 41.0065 62.5105V62.2729C41.5228 60.2428 42.3035 58.2892 43.3285 56.4625V56.3977L44.0089 55.6741V55.7605C44.4301 57.8233 45.6505 59.9941 48.4585 60.3397L48.7285 58.1797C46.0501 57.8449 45.9529 54.5617 45.9853 53.5681V53.5033L54.8197 44.0857V44.1829C55.7507 56.5135 55.5338 68.904 54.1717 81.1945V81.1945ZM61.1593 35.3809H56.8393V9.72006H61.1593V35.3809ZM103.56 90.1477C101.141 95.0401 96.3025 97.5889 89.1637 97.7077H88.1593C65.6413 97.7077 63.9241 81.8317 63.8593 81.1081C62.4661 68.8749 62.2094 56.539 63.0925 44.2585V44.0965L71.9161 53.4925V53.5681C71.9161 54.5401 71.9161 57.8881 69.1729 58.1905L69.4429 60.3505C72.2617 59.9941 73.4713 57.8341 73.8925 55.7605V55.6741L74.5081 56.3329L74.5837 56.4625C75.6262 58.2884 76.4181 60.2464 76.9381 62.2837V62.3809C77.4804 64.625 77.1466 66.9915 76.0048 68.9981C74.8631 71.0048 72.9992 72.5006 70.7929 73.1809L71.4085 75.2437C73.9908 74.3385 76.2109 72.6222 77.7373 70.3513V70.4485C77.5873 73.4905 77.0278 76.4983 76.0741 79.3909C75.9769 79.7149 73.6009 87.4909 76.1821 91.7785L78.0289 90.6985C76.3009 87.8257 77.5213 82.0585 78.1261 80.0713C78.6073 78.5874 79.0004 77.0763 79.3033 75.5461H79.3681C79.6381 75.8377 79.9621 76.1617 80.3077 76.4965C82.8133 79.4233 86.6905 84.6613 87.0145 89.4565L89.2393 89.3809C88.887 86.2985 87.8221 83.3405 86.1289 80.7409C88.8076 82.2523 91.9524 82.7142 94.9525 82.0369L94.4125 79.9417C89.4553 81.2269 84.5521 77.5117 81.8845 74.9413C80.8909 73.7965 80.1133 73.0081 79.8325 72.7273C80.3994 68.2538 79.9188 63.7099 78.4285 59.4541H78.5041C80.8261 59.3461 85.4269 59.7133 87.4681 63.9793L89.4121 63.0505C88.5179 61.1646 87.0258 59.627 85.1677 58.6765V58.6765C86.9173 57.2401 91.2265 58.0933 92.7277 58.5685L93.3649 56.5057C92.5333 56.2465 85.5133 54.1945 82.9861 57.8125V57.8665C81.232 57.3701 79.4 57.2089 77.5861 57.3913H77.4997C77.2081 56.7649 76.9057 56.2033 76.6357 55.7173V55.6309C75.9121 53.4709 73.1797 49.2481 70.3609 45.2413C73.1896 44.37 76.1389 43.9544 79.0981 44.0101V44.0101C80.1781 44.9605 82.8997 47.8009 82.1329 49.4965L84.0985 50.3929C85.0489 48.2869 83.7529 45.9865 82.4353 44.3773V44.3017C85.1757 44.6694 87.7892 45.6837 90.0601 47.2609L90.7405 46.4617L90.0601 47.2609L90.7513 46.4509L91.4641 45.6193C88.3779 43.3538 84.6933 42.0467 80.8693 41.8609V41.7745C80.8404 40.6234 81.0457 39.4784 81.4727 38.409C81.8997 37.3397 82.5395 36.3682 83.3533 35.5537L81.9601 33.8689C80.9154 34.8778 80.0888 36.0905 79.5315 37.4317C78.9742 38.7729 78.6981 40.2142 78.7201 41.6665V41.7421C77.4408 41.7476 76.1634 41.8414 74.8969 42.0229H74.8105L75.0805 41.5909C77.9101 36.8605 75.4261 29.4193 75.3289 29.1061L73.2877 29.7973C73.6329 30.8915 73.8929 32.0109 74.0653 33.1453H73.9897C72.8125 33.1993 70.4041 33.0913 69.5185 31.3093L67.5853 32.2705C68.8489 34.9165 71.7541 35.3809 73.5145 35.3809H74.1733H74.2273C74.3628 37.1692 73.9883 38.9592 73.1473 40.5433C72.652 41.2529 72.0099 41.8478 71.2646 42.2875C70.5192 42.7273 69.688 43.0017 68.8273 43.0921V43.0921C66.8941 40.4029 65.0689 38.0053 64.0213 36.6121V36.4609C64.5939 32.793 65.4754 29.1802 66.6565 25.6609V25.6609C66.6565 25.5853 68.9245 18.4465 73.3417 17.7121C73.5807 17.6705 73.8228 17.6488 74.0653 17.6473C76.7761 17.6473 79.9621 20.0557 83.3317 24.6673C92.5873 37.2385 111.531 74.0449 103.56 90.1477Z" fill="#56C6AB"/>
<path d="M90.0602 47.3041L90.7514 46.4833H90.7622L90.0602 47.3041Z" fill="#56C6AB"/>
<path d="M19.4814 131.192C18.1214 131.192 16.8974 130.912 15.8094 130.352C14.7374 129.776 13.8974 128.984 13.2894 127.976C12.6814 126.968 12.3774 125.824 12.3774 124.544C12.3774 123.264 12.6814 122.12 13.2894 121.112C13.8974 120.104 14.7374 119.32 15.8094 118.76C16.8974 118.184 18.1214 117.896 19.4814 117.896C20.8414 117.896 22.0574 118.184 23.1294 118.76C24.2014 119.32 25.0414 120.104 25.6494 121.112C26.2574 122.12 26.5614 123.264 26.5614 124.544C26.5614 125.824 26.2574 126.968 25.6494 127.976C25.0414 128.984 24.2014 129.776 23.1294 130.352C22.0574 130.912 20.8414 131.192 19.4814 131.192ZM19.4814 128.12C20.4414 128.12 21.2254 127.8 21.8334 127.16C22.4574 126.504 22.7694 125.632 22.7694 124.544C22.7694 123.456 22.4574 122.592 21.8334 121.952C21.2254 121.296 20.4414 120.968 19.4814 120.968C18.5214 120.968 17.7294 121.296 17.1054 121.952C16.4814 122.592 16.1694 123.456 16.1694 124.544C16.1694 125.632 16.4814 126.504 17.1054 127.16C17.7294 127.8 18.5214 128.12 19.4814 128.12ZM42.2159 113.192V131H38.6399V129.512C37.7119 130.632 36.3679 131.192 34.6079 131.192C33.3919 131.192 32.2879 130.92 31.2959 130.376C30.3199 129.832 29.5519 129.056 28.9919 128.048C28.4319 127.04 28.1519 125.872 28.1519 124.544C28.1519 123.216 28.4319 122.048 28.9919 121.04C29.5519 120.032 30.3199 119.256 31.2959 118.712C32.2879 118.168 33.3919 117.896 34.6079 117.896C36.2559 117.896 37.5439 118.416 38.4719 119.456V113.192H42.2159ZM35.2559 128.12C36.1999 128.12 36.9839 127.8 37.6079 127.16C38.2319 126.504 38.5439 125.632 38.5439 124.544C38.5439 123.456 38.2319 122.592 37.6079 121.952C36.9839 121.296 36.1999 120.968 35.2559 120.968C34.2959 120.968 33.5039 121.296 32.8799 121.952C32.2559 122.592 31.9439 123.456 31.9439 124.544C31.9439 125.632 32.2559 126.504 32.8799 127.16C33.5039 127.8 34.2959 128.12 35.2559 128.12ZM58.8331 113.192V131H55.2571V129.512C54.3291 130.632 52.9851 131.192 51.2251 131.192C50.0091 131.192 48.9051 130.92 47.9131 130.376C46.9371 129.832 46.1691 129.056 45.6091 128.048C45.0491 127.04 44.7691 125.872 44.7691 124.544C44.7691 123.216 45.0491 122.048 45.6091 121.04C46.1691 120.032 46.9371 119.256 47.9131 118.712C48.9051 118.168 50.0091 117.896 51.2251 117.896C52.8731 117.896 54.1611 118.416 55.0891 119.456V113.192H58.8331ZM51.8731 128.12C52.8171 128.12 53.6011 127.8 54.2251 127.16C54.8491 126.504 55.1611 125.632 55.1611 124.544C55.1611 123.456 54.8491 122.592 54.2251 121.952C53.6011 121.296 52.8171 120.968 51.8731 120.968C50.9131 120.968 50.1211 121.296 49.4971 121.952C48.8731 122.592 48.5611 123.456 48.5611 124.544C48.5611 125.632 48.8731 126.504 49.4971 127.16C50.1211 127.8 50.9131 128.12 51.8731 128.12ZM74.9463 124.592C74.9463 124.64 74.9223 124.976 74.8743 125.6H65.1063C65.2823 126.4 65.6983 127.032 66.3543 127.496C67.0103 127.96 67.8263 128.192 68.8023 128.192C69.4743 128.192 70.0663 128.096 70.5783 127.904C71.1063 127.696 71.5943 127.376 72.0423 126.944L74.0343 129.104C72.8183 130.496 71.0423 131.192 68.7063 131.192C67.2503 131.192 65.9623 130.912 64.8423 130.352C63.7223 129.776 62.8583 128.984 62.2503 127.976C61.6423 126.968 61.3383 125.824 61.3383 124.544C61.3383 123.28 61.6343 122.144 62.2263 121.136C62.8343 120.112 63.6583 119.32 64.6983 118.76C65.7543 118.184 66.9303 117.896 68.2263 117.896C69.4903 117.896 70.6343 118.168 71.6583 118.712C72.6823 119.256 73.4823 120.04 74.0583 121.064C74.6503 122.072 74.9463 123.248 74.9463 124.592ZM68.2503 120.728C67.4023 120.728 66.6903 120.968 66.1143 121.448C65.5383 121.928 65.1863 122.584 65.0583 123.416H71.4183C71.2903 122.6 70.9383 121.952 70.3623 121.472C69.7863 120.976 69.0823 120.728 68.2503 120.728ZM83.6789 131.192C82.3029 131.192 81.0629 130.912 79.9589 130.352C78.8709 129.776 78.0149 128.984 77.3909 127.976C76.7829 126.968 76.4789 125.824 76.4789 124.544C76.4789 123.264 76.7829 122.12 77.3909 121.112C78.0149 120.104 78.8709 119.32 79.9589 118.76C81.0629 118.184 82.3029 117.896 83.6789 117.896C85.0389 117.896 86.2229 118.184 87.2309 118.76C88.2549 119.32 88.9989 120.128 89.4629 121.184L86.5589 122.744C85.8869 121.56 84.9189 120.968 83.6549 120.968C82.6789 120.968 81.8709 121.288 81.2309 121.928C80.5909 122.568 80.2709 123.44 80.2709 124.544C80.2709 125.648 80.5909 126.52 81.2309 127.16C81.8709 127.8 82.6789 128.12 83.6549 128.12C84.9349 128.12 85.9029 127.528 86.5589 126.344L89.4629 127.928C88.9989 128.952 88.2549 129.752 87.2309 130.328C86.2229 130.904 85.0389 131.192 83.6789 131.192ZM99.3729 117.896C100.973 117.896 102.261 118.376 103.237 119.336C104.229 120.296 104.725 121.72 104.725 123.608V131H100.981V124.184C100.981 123.16 100.757 122.4 100.309 121.904C99.8609 121.392 99.2129 121.136 98.3649 121.136C97.4209 121.136 96.6689 121.432 96.1089 122.024C95.5489 122.6 95.2689 123.464 95.2689 124.616V131H91.5249V113.192H95.2689V119.432C95.7649 118.936 96.3649 118.56 97.0689 118.304C97.7729 118.032 98.5409 117.896 99.3729 117.896Z" fill="#78CFBA"/>
</svg>
