<svg width="69" height="68" viewBox="0 0 69 68" fill="none" xmlns="http://www.w3.org/2000/svg">
<path d="M25.2511 56.448C26.0591 56.448 26.6991 56.688 27.1711 57.168C27.6511 57.64 27.8911 58.352 27.8911 59.304V63H26.0191V59.592C26.0191 59.08 25.9111 58.7 25.6951 58.452C25.4871 58.196 25.1871 58.068 24.7951 58.068C24.3551 58.068 24.0071 58.212 23.7511 58.5C23.4951 58.78 23.3671 59.2 23.3671 59.76V63H21.4951V59.592C21.4951 58.576 21.0871 58.068 20.2711 58.068C19.8391 58.068 19.4951 58.212 19.2391 58.5C18.9831 58.78 18.8551 59.2 18.8551 59.76V63H16.9831V56.544H18.7711V57.288C19.0111 57.016 19.3031 56.808 19.6471 56.664C19.9991 56.52 20.3831 56.448 20.7991 56.448C21.2551 56.448 21.6671 56.54 22.0351 56.724C22.4031 56.9 22.6991 57.16 22.9231 57.504C23.1871 57.168 23.5191 56.908 23.9191 56.724C24.3271 56.54 24.7711 56.448 25.2511 56.448ZM35.9634 59.796C35.9634 59.82 35.9514 59.988 35.9274 60.3H31.0434C31.1314 60.7 31.3394 61.016 31.6674 61.248C31.9954 61.48 32.4034 61.596 32.8914 61.596C33.2274 61.596 33.5234 61.548 33.7794 61.452C34.0434 61.348 34.2874 61.188 34.5114 60.972L35.5074 62.052C34.8994 62.748 34.0114 63.096 32.8434 63.096C32.1154 63.096 31.4714 62.956 30.9114 62.676C30.3514 62.388 29.9194 61.992 29.6154 61.488C29.3114 60.984 29.1594 60.412 29.1594 59.772C29.1594 59.14 29.3074 58.572 29.6034 58.068C29.9074 57.556 30.3194 57.16 30.8394 56.88C31.3674 56.592 31.9554 56.448 32.6034 56.448C33.2354 56.448 33.8074 56.584 34.3194 56.856C34.8314 57.128 35.2314 57.52 35.5194 58.032C35.8154 58.536 35.9634 59.124 35.9634 59.796ZM32.6154 57.864C32.1914 57.864 31.8354 57.984 31.5474 58.224C31.2594 58.464 31.0834 58.792 31.0194 59.208H34.1994C34.1354 58.8 33.9594 58.476 33.6714 58.236C33.3834 57.988 33.0314 57.864 32.6154 57.864ZM41.1337 56.448C41.9337 56.448 42.5777 56.688 43.0657 57.168C43.5617 57.648 43.8097 58.36 43.8097 59.304V63H41.9377V59.592C41.9377 59.08 41.8257 58.7 41.6017 58.452C41.3777 58.196 41.0537 58.068 40.6297 58.068C40.1577 58.068 39.7817 58.216 39.5017 58.512C39.2217 58.8 39.0817 59.232 39.0817 59.808V63H37.2097V56.544H38.9977V57.3C39.2457 57.028 39.5537 56.82 39.9217 56.676C40.2897 56.524 40.6937 56.448 41.1337 56.448ZM52.0106 56.544V63H50.2346V62.232C49.9866 62.512 49.6906 62.728 49.3466 62.88C49.0026 63.024 48.6306 63.096 48.2306 63.096C47.3826 63.096 46.7106 62.852 46.2146 62.364C45.7186 61.876 45.4706 61.152 45.4706 60.192V56.544H47.3426V59.916C47.3426 60.956 47.7786 61.476 48.6506 61.476C49.0986 61.476 49.4586 61.332 49.7306 61.044C50.0026 60.748 50.1386 60.312 50.1386 59.736V56.544H52.0106Z" fill="#78CFBA"/>
<path d="M40.0024 32.7926L39.8652 32.3345H39.8603L40.0024 32.7926Z" fill="#56C6AB"/>
<path d="M48.9058 20.5353L48.9008 20.5452L48.9108 20.5353H48.9058Z" fill="#56C6AB"/>
<path d="M48.5921 20.8979L48.9008 20.5448L48.9057 20.5353L48.5921 20.8979Z" fill="#56C6AB"/>
<path d="M46.3381 10.3106C44.4026 7.7389 42.5553 6.57473 40.8452 6.85623C38.2825 7.27609 37.1261 10.7734 37.0477 11.0215C36.837 11.6227 36.641 12.2477 36.4695 12.887V12.9204V3.33984H32.5397V12.825H32.5103C32.3437 12.2048 32.1575 11.6036 31.9517 11.0263C31.8733 10.7782 30.712 7.28087 28.1542 6.861C26.4392 6.5795 24.5968 7.74367 22.6613 10.3154C17.7319 16.8758 9.6763 32.9166 13.4052 40.2499C14.6743 42.7548 17.1635 44.0669 20.7944 44.1337H21.2844C32.427 44.1337 33.2845 36.0227 33.2894 35.9654C33.3531 35.4883 34.4556 26.8428 33.5638 18.603V18.56L34.4409 17.6487H34.5732L35.4503 18.56V18.622C34.5585 26.8524 35.6659 35.4835 35.7247 35.9463C35.7247 36.0274 36.5871 44.1337 47.7346 44.1337H48.2246C51.8555 44.0574 54.3447 42.7501 55.6138 40.2499C59.3231 32.9166 51.2675 16.8758 46.3381 10.3106ZM32.3094 35.87C32.3094 35.9463 31.5352 43.189 21.2746 43.1842H20.814C17.5751 43.1174 15.3799 41.9914 14.2823 39.8444C10.6661 32.7114 19.2607 16.4511 23.4551 10.8593C24.9888 8.82197 26.4343 7.75799 27.6593 7.75799C27.7694 7.75867 27.8792 7.76824 27.9876 7.78661C29.9917 8.11583 31.0109 11.2696 31.0207 11.2982C31.5551 12.8531 31.9534 14.4492 32.2114 16.0694V16.1267C31.7214 16.7374 30.908 17.7966 30.026 18.9894C29.6354 18.9498 29.2582 18.8287 28.92 18.6344C28.5818 18.4401 28.2905 18.1771 28.066 17.8634C27.6829 17.1607 27.5129 16.3664 27.576 15.5732H27.6397H27.9337C28.7373 15.5732 30.0505 15.3824 30.6434 14.2325L29.7663 13.8079C29.3645 14.5904 28.2963 14.6428 27.7426 14.619H27.7083C27.7852 14.1196 27.9015 13.6267 28.0562 13.1447L27.1301 12.8393C27.0811 12.9777 25.959 16.2651 27.2428 18.3548L27.3506 18.5218C26.7663 18.4404 26.1769 18.3989 25.5866 18.3978V18.3548C25.5962 17.714 25.4707 17.0781 25.2179 16.4864C24.965 15.8947 24.5902 15.3598 24.1166 14.9148L23.4943 15.6496C23.8641 16.01 24.1548 16.4399 24.3485 16.9132C24.5423 17.3865 24.6351 17.8932 24.6213 18.4026V18.4932C22.8816 18.583 21.2079 19.1706 19.8095 20.1822L20.4073 20.8788C21.4343 20.1641 22.6222 19.6994 23.8716 19.5238V19.5238C23.264 20.2395 22.6564 21.2701 23.0925 22.21L23.9794 21.8331C23.6217 21.0697 24.9104 19.7814 25.3906 19.3902C26.7187 19.3719 28.0415 19.5571 29.3106 19.9389V19.9389C28.0317 21.709 26.7969 23.565 26.4637 24.5288L26.4294 24.6004C26.3069 24.8055 26.1795 25.0441 26.0521 25.3113H26.0129C25.1899 25.2305 24.3587 25.3017 23.5629 25.5212V25.4926C22.4114 23.9038 19.2313 24.8055 18.8589 24.92L19.148 25.8313C19.8487 25.6214 21.7842 25.2493 22.578 25.8695L22.6074 25.9029C21.7719 26.3184 21.0991 26.9887 20.6915 27.8114L21.5735 28.2217C22.4996 26.3419 24.5723 26.1749 25.6307 26.2226H25.6846C25.0057 28.1037 24.7859 30.113 25.0427 32.0912L25.0084 32.1246C24.8663 32.2582 24.5184 32.6017 24.0921 33.0788C22.8818 34.2096 20.6621 35.8557 18.413 35.2879L18.168 36.2135C19.5317 36.5273 20.9666 36.3333 22.1909 35.6696C21.4227 36.818 20.9396 38.1248 20.7797 39.4865L21.7597 39.5533C21.9116 37.4397 23.6707 35.1161 24.8075 33.8279C24.9643 33.68 25.1015 33.5416 25.224 33.4176L25.2534 33.3889C25.3908 34.065 25.5691 34.7325 25.7875 35.3881C26.0668 36.266 26.6156 38.8186 25.8365 40.0877L26.6744 40.5648C27.8406 38.6564 26.7675 35.2354 26.7185 35.0875C26.2643 33.7476 26.0086 32.3515 25.959 30.9413V30.865C26.6308 31.934 27.6323 32.769 28.8206 33.2506L29.1636 32.3297C29.0215 32.2772 25.8316 31.0892 26.3363 27.6158V27.5108C26.5705 26.6139 26.9247 25.7509 27.3898 24.9439V24.9153L27.6985 24.5956V24.6338C27.8896 25.5451 28.4433 26.5041 29.7173 26.6568L29.8398 25.7025C28.6246 25.5546 28.5805 24.1042 28.5952 23.6652V23.6366L32.6034 19.4761V19.519C33.0258 24.9664 32.9274 30.4403 32.3094 35.87V35.87ZM35.4797 15.6305H33.5197V4.29409H35.4797V15.6305ZM54.7171 39.8253C53.6195 41.9867 51.4243 43.1127 48.1854 43.1652H47.7297C37.5132 43.1652 36.7341 36.1515 36.7047 35.8318C36.0726 30.4275 35.9561 24.9777 36.3568 19.5524V19.4809L40.3601 23.6318V23.6652C40.3601 24.0946 40.3601 25.5737 39.1155 25.7073L39.238 26.6615C40.5169 26.5041 41.0657 25.5498 41.2568 24.6338V24.5956L41.5361 24.8866L41.5704 24.9439C42.0434 25.7506 42.4027 26.6156 42.6386 27.5156V27.5585C42.8846 28.5499 42.7332 29.5954 42.2152 30.4819C41.6971 31.3684 40.8515 32.0292 39.8505 32.3297L40.1298 33.241C41.3014 32.8412 42.3087 32.0829 43.0012 31.0797V31.1226C42.9331 32.4665 42.6793 33.7953 42.2466 35.0732C42.2025 35.2163 41.1245 38.6516 42.2956 40.5458L43.1335 40.0686C42.3495 38.7995 42.9032 36.2517 43.1776 35.3738C43.3959 34.7182 43.5742 34.0507 43.7117 33.3746H43.7411C43.8636 33.5035 44.0106 33.6466 44.1674 33.7945C45.3042 35.0875 47.0633 37.4015 47.2103 39.5199L48.2197 39.4865C48.0598 38.1248 47.5767 36.818 46.8085 35.6696C48.0238 36.3373 49.4506 36.5414 50.8118 36.2421L50.5668 35.3165C48.3177 35.8843 46.0931 34.243 44.8828 33.1074C44.432 32.6017 44.0792 32.2534 43.9518 32.1293C44.209 30.1531 43.9909 28.1457 43.3148 26.2655H43.3491C44.4026 26.2178 46.49 26.38 47.4161 28.2647L48.2981 27.8543C47.8924 27.0212 47.2154 26.3419 46.3724 25.922V25.922C47.1662 25.2874 49.1213 25.6643 49.8024 25.8743L50.0915 24.963C49.7142 24.8485 46.5292 23.9419 45.3826 25.5403V25.5642C44.5867 25.3449 43.7556 25.2737 42.9326 25.3542H42.8934C42.7611 25.0775 42.6239 24.8294 42.5014 24.6147V24.5765C42.1731 23.6223 40.9334 21.7567 39.6545 19.9866C40.9379 19.6017 42.276 19.4181 43.6186 19.4427V19.4427C44.1086 19.8626 45.3434 21.1174 44.9955 21.8665L45.8873 22.2625C46.3185 21.3321 45.7305 20.3158 45.1327 19.6049V19.5715C46.376 19.734 47.5618 20.1821 48.5921 20.8788L48.9008 20.5257L48.5921 20.8788L48.9057 20.521L49.2291 20.1536C47.8289 19.1528 46.1571 18.5753 44.4222 18.4932V18.455C44.4091 17.9465 44.5022 17.4407 44.6959 16.9683C44.8897 16.4959 45.18 16.0667 45.5492 15.7068L44.9171 14.9625C44.4431 15.4083 44.0681 15.944 43.8152 16.5365C43.5624 17.129 43.4371 17.7658 43.4471 18.4073V18.4407C42.8667 18.4432 42.2871 18.4846 41.7125 18.5648H41.6733L41.7958 18.3739C43.0796 16.2841 41.9526 12.9968 41.9085 12.8584L40.9824 13.1638C41.139 13.6472 41.257 14.1417 41.3352 14.6428H41.3009C40.7668 14.6667 39.6741 14.619 39.2723 13.8317L38.3952 14.2564C38.9685 15.4253 40.2866 15.6305 41.0853 15.6305H41.3842H41.4087C41.4701 16.4205 41.3002 17.2113 40.9187 17.9111C40.694 18.2246 40.4026 18.4874 40.0645 18.6817C39.7263 18.876 39.3492 18.9972 38.9587 19.0371V19.0371C38.0816 17.8491 37.2535 16.7899 36.7782 16.1744V16.1076C37.038 14.4872 37.4379 12.8912 37.9738 11.3364V11.3364C37.9738 11.303 39.0028 8.14923 41.0069 7.82478C41.1153 7.80641 41.2251 7.79684 41.3352 7.79616C42.5651 7.79616 44.0106 8.86014 45.5394 10.8974C49.7387 16.4511 58.3333 32.7114 54.7171 39.8253Z" fill="#56C6AB"/>
<path d="M48.5921 20.8979L48.9057 20.5353H48.9106L48.5921 20.8979Z" fill="#56C6AB"/>
</svg>
