<svg width="34" height="34" viewBox="0 0 34 34" fill="none" xmlns="http://www.w3.org/2000/svg">
<path d="M29.0208 4.97914C25.8099 1.76833 21.5409 0 17 0C12.4591 0 8.19002 1.76833 4.97914 4.97914C1.76833 8.19002 0 12.4591 0 17C0 21.5409 1.76833 25.81 4.97914 29.0209C8.19002 32.2317 12.4591 34 17 34C21.5409 34 25.8099 32.2317 29.0208 29.0209C32.2317 25.81 34 21.5409 34 17C34 12.4591 32.2317 8.19002 29.0208 4.97914ZM17 32.0078C8.72465 32.0078 1.99219 25.2753 1.99219 17C1.99219 8.72465 8.72465 1.99219 17 1.99219C25.2753 1.99219 32.0078 8.72465 32.0078 17C32.0078 25.2753 25.2753 32.0078 17 32.0078Z" fill="#74B6A6"/>
<path d="M20.2007 9.14566C19.6506 9.14566 19.2046 9.59164 19.2046 10.1418V23.8584C19.2046 24.4085 19.6506 24.8545 20.2007 24.8545C20.7508 24.8545 21.1968 24.4085 21.1968 23.8584V10.1418C21.1968 9.59164 20.7508 9.14566 20.2007 9.14566Z" fill="#74B6A6"/>
<path d="M13.7991 9.14566C13.249 9.14566 12.8031 9.59164 12.8031 10.1418V23.8584C12.8031 24.4085 13.249 24.8545 13.7991 24.8545C14.3493 24.8545 14.7952 24.4085 14.7952 23.8584V10.1418C14.7952 9.59164 14.3493 9.14566 13.7991 9.14566Z" fill="#74B6A6"/>
</svg>
