<svg width="69" height="67" viewBox="0 0 69 67" fill="none" xmlns="http://www.w3.org/2000/svg">
<path d="M16.2663 62.688C16.0823 62.824 15.8543 62.928 15.5823 63C15.3183 63.064 15.0383 63.096 14.7423 63.096C13.9743 63.096 13.3783 62.9 12.9543 62.508C12.5383 62.116 12.3303 61.54 12.3303 60.78V58.128H11.3343V56.688H12.3303V55.116H14.2023V56.688H15.8103V58.128H14.2023V60.756C14.2023 61.028 14.2703 61.24 14.4063 61.392C14.5503 61.536 14.7503 61.608 15.0063 61.608C15.3023 61.608 15.5543 61.528 15.7623 61.368L16.2663 62.688ZM19.1051 57.396C19.3291 57.084 19.6291 56.848 20.0051 56.688C20.3891 56.528 20.8291 56.448 21.3251 56.448V58.176C21.1171 58.16 20.9771 58.152 20.9051 58.152C20.3691 58.152 19.9491 58.304 19.6451 58.608C19.3411 58.904 19.1891 59.352 19.1891 59.952V63H17.3171V56.544H19.1051V57.396ZM28.7036 59.796C28.7036 59.82 28.6916 59.988 28.6676 60.3H23.7836C23.8716 60.7 24.0796 61.016 24.4076 61.248C24.7356 61.48 25.1436 61.596 25.6316 61.596C25.9676 61.596 26.2636 61.548 26.5196 61.452C26.7836 61.348 27.0276 61.188 27.2516 60.972L28.2476 62.052C27.6396 62.748 26.7516 63.096 25.5836 63.096C24.8556 63.096 24.2116 62.956 23.6516 62.676C23.0916 62.388 22.6596 61.992 22.3556 61.488C22.0516 60.984 21.8996 60.412 21.8996 59.772C21.8996 59.14 22.0476 58.572 22.3436 58.068C22.6476 57.556 23.0596 57.16 23.5796 56.88C24.1076 56.592 24.6956 56.448 25.3436 56.448C25.9756 56.448 26.5476 56.584 27.0596 56.856C27.5716 57.128 27.9716 57.52 28.2596 58.032C28.5556 58.536 28.7036 59.124 28.7036 59.796ZM25.3556 57.864C24.9316 57.864 24.5756 57.984 24.2876 58.224C23.9996 58.464 23.8236 58.792 23.7596 59.208H26.9396C26.8756 58.8 26.6996 58.476 26.4116 58.236C26.1236 57.988 25.7716 57.864 25.3556 57.864ZM33.8739 56.448C34.6739 56.448 35.3179 56.688 35.8059 57.168C36.3019 57.648 36.5499 58.36 36.5499 59.304V63H34.6779V59.592C34.6779 59.08 34.5659 58.7 34.3419 58.452C34.1179 58.196 33.7939 58.068 33.3699 58.068C32.8979 58.068 32.5219 58.216 32.2419 58.512C31.9619 58.8 31.8219 59.232 31.8219 59.808V63H29.9499V56.544H31.7379V57.3C31.9859 57.028 32.2939 56.82 32.6619 56.676C33.0299 56.524 33.4339 56.448 33.8739 56.448ZM38.2468 56.544H40.1188V63H38.2468V56.544ZM39.1828 55.644C38.8388 55.644 38.5588 55.544 38.3428 55.344C38.1268 55.144 38.0188 54.896 38.0188 54.6C38.0188 54.304 38.1268 54.056 38.3428 53.856C38.5588 53.656 38.8388 53.556 39.1828 53.556C39.5268 53.556 39.8068 53.652 40.0228 53.844C40.2388 54.036 40.3468 54.276 40.3468 54.564C40.3468 54.876 40.2388 55.136 40.0228 55.344C39.8068 55.544 39.5268 55.644 39.1828 55.644ZM45.7802 56.448C46.5802 56.448 47.2242 56.688 47.7122 57.168C48.2082 57.648 48.4562 58.36 48.4562 59.304V63H46.5842V59.592C46.5842 59.08 46.4722 58.7 46.2482 58.452C46.0242 58.196 45.7002 58.068 45.2762 58.068C44.8042 58.068 44.4282 58.216 44.1482 58.512C43.8682 58.8 43.7282 59.232 43.7282 59.808V63H41.8562V56.544H43.6442V57.3C43.8922 57.028 44.2002 56.82 44.5682 56.676C44.9362 56.524 45.3402 56.448 45.7802 56.448ZM56.8834 56.544V61.92C56.8834 63.104 56.5754 63.984 55.9594 64.56C55.3434 65.136 54.4434 65.424 53.2594 65.424C52.6354 65.424 52.0434 65.348 51.4834 65.196C50.9234 65.044 50.4594 64.824 50.0914 64.536L50.8354 63.192C51.1074 63.416 51.4514 63.592 51.8674 63.72C52.2834 63.856 52.6994 63.924 53.1154 63.924C53.7634 63.924 54.2394 63.776 54.5434 63.48C54.8554 63.192 55.0114 62.752 55.0114 62.16V61.884C54.5234 62.42 53.8434 62.688 52.9714 62.688C52.3794 62.688 51.8354 62.56 51.3394 62.304C50.8514 62.04 50.4634 61.672 50.1754 61.2C49.8874 60.728 49.7434 60.184 49.7434 59.568C49.7434 58.952 49.8874 58.408 50.1754 57.936C50.4634 57.464 50.8514 57.1 51.3394 56.844C51.8354 56.58 52.3794 56.448 52.9714 56.448C53.9074 56.448 54.6194 56.756 55.1074 57.372V56.544H56.8834ZM53.3434 61.152C53.8394 61.152 54.2434 61.008 54.5554 60.72C54.8754 60.424 55.0354 60.04 55.0354 59.568C55.0354 59.096 54.8754 58.716 54.5554 58.428C54.2434 58.132 53.8394 57.984 53.3434 57.984C52.8474 57.984 52.4394 58.132 52.1194 58.428C51.7994 58.716 51.6394 59.096 51.6394 59.568C51.6394 60.04 51.7994 60.424 52.1194 60.72C52.4394 61.008 52.8474 61.152 53.3434 61.152Z" fill="#78CFBA"/>
<path d="M42 12L46.58 16.58L36.82 26.34L28.82 18.34L14 33.18L16.82 36L28.82 24L36.82 32L49.42 19.42L54 24V12H42Z" fill="#56C6AB"/>
</svg>
