<svg width="69" height="66" viewBox="0 0 69 66" fill="none" xmlns="http://www.w3.org/2000/svg">
<path d="M14.7407 62.096C14.0607 62.096 13.4487 61.956 12.9047 61.676C12.3687 61.388 11.9487 60.992 11.6447 60.488C11.3407 59.984 11.1887 59.412 11.1887 58.772C11.1887 58.132 11.3407 57.56 11.6447 57.056C11.9487 56.552 12.3687 56.16 12.9047 55.88C13.4487 55.592 14.0607 55.448 14.7407 55.448C15.4207 55.448 16.0287 55.592 16.5647 55.88C17.1007 56.16 17.5207 56.552 17.8247 57.056C18.1287 57.56 18.2807 58.132 18.2807 58.772C18.2807 59.412 18.1287 59.984 17.8247 60.488C17.5207 60.992 17.1007 61.388 16.5647 61.676C16.0287 61.956 15.4207 62.096 14.7407 62.096ZM14.7407 60.56C15.2207 60.56 15.6127 60.4 15.9167 60.08C16.2287 59.752 16.3847 59.316 16.3847 58.772C16.3847 58.228 16.2287 57.796 15.9167 57.476C15.6127 57.148 15.2207 56.984 14.7407 56.984C14.2607 56.984 13.8647 57.148 13.5527 57.476C13.2407 57.796 13.0847 58.228 13.0847 58.772C13.0847 59.316 13.2407 59.752 13.5527 60.08C13.8647 60.4 14.2607 60.56 14.7407 60.56ZM26.108 53.096V62H24.32V61.256C23.856 61.816 23.184 62.096 22.304 62.096C21.696 62.096 21.144 61.96 20.648 61.688C20.16 61.416 19.776 61.028 19.496 60.524C19.216 60.02 19.076 59.436 19.076 58.772C19.076 58.108 19.216 57.524 19.496 57.02C19.776 56.516 20.16 56.128 20.648 55.856C21.144 55.584 21.696 55.448 22.304 55.448C23.128 55.448 23.772 55.708 24.236 56.228V53.096H26.108ZM22.628 60.56C23.1 60.56 23.492 60.4 23.804 60.08C24.116 59.752 24.272 59.316 24.272 58.772C24.272 58.228 24.116 57.796 23.804 57.476C23.492 57.148 23.1 56.984 22.628 56.984C22.148 56.984 21.752 57.148 21.44 57.476C21.128 57.796 20.972 58.228 20.972 58.772C20.972 59.316 21.128 59.752 21.44 60.08C21.752 60.4 22.148 60.56 22.628 60.56ZM34.4166 53.096V62H32.6286V61.256C32.1646 61.816 31.4926 62.096 30.6126 62.096C30.0046 62.096 29.4526 61.96 28.9566 61.688C28.4686 61.416 28.0846 61.028 27.8046 60.524C27.5246 60.02 27.3846 59.436 27.3846 58.772C27.3846 58.108 27.5246 57.524 27.8046 57.02C28.0846 56.516 28.4686 56.128 28.9566 55.856C29.4526 55.584 30.0046 55.448 30.6126 55.448C31.4366 55.448 32.0806 55.708 32.5446 56.228V53.096H34.4166ZM30.9366 60.56C31.4086 60.56 31.8006 60.4 32.1126 60.08C32.4246 59.752 32.5806 59.316 32.5806 58.772C32.5806 58.228 32.4246 57.796 32.1126 57.476C31.8006 57.148 31.4086 56.984 30.9366 56.984C30.4566 56.984 30.0606 57.148 29.7486 57.476C29.4366 57.796 29.2806 58.228 29.2806 58.772C29.2806 59.316 29.4366 59.752 29.7486 60.08C30.0606 60.4 30.4566 60.56 30.9366 60.56ZM42.4732 58.796C42.4732 58.82 42.4612 58.988 42.4372 59.3H37.5532C37.6412 59.7 37.8492 60.016 38.1772 60.248C38.5052 60.48 38.9132 60.596 39.4012 60.596C39.7372 60.596 40.0332 60.548 40.2892 60.452C40.5532 60.348 40.7972 60.188 41.0212 59.972L42.0172 61.052C41.4092 61.748 40.5212 62.096 39.3532 62.096C38.6252 62.096 37.9812 61.956 37.4212 61.676C36.8612 61.388 36.4292 60.992 36.1252 60.488C35.8212 59.984 35.6692 59.412 35.6692 58.772C35.6692 58.14 35.8172 57.572 36.1132 57.068C36.4172 56.556 36.8292 56.16 37.3492 55.88C37.8772 55.592 38.4652 55.448 39.1132 55.448C39.7452 55.448 40.3172 55.584 40.8292 55.856C41.3412 56.128 41.7412 56.52 42.0292 57.032C42.3252 57.536 42.4732 58.124 42.4732 58.796ZM39.1252 56.864C38.7012 56.864 38.3452 56.984 38.0572 57.224C37.7692 57.464 37.5932 57.792 37.5292 58.208H40.7092C40.6452 57.8 40.4692 57.476 40.1812 57.236C39.8932 56.988 39.5412 56.864 39.1252 56.864ZM46.8395 62.096C46.1515 62.096 45.5315 61.956 44.9795 61.676C44.4355 61.388 44.0075 60.992 43.6955 60.488C43.3915 59.984 43.2395 59.412 43.2395 58.772C43.2395 58.132 43.3915 57.56 43.6955 57.056C44.0075 56.552 44.4355 56.16 44.9795 55.88C45.5315 55.592 46.1515 55.448 46.8395 55.448C47.5195 55.448 48.1115 55.592 48.6155 55.88C49.1275 56.16 49.4995 56.564 49.7315 57.092L48.2795 57.872C47.9435 57.28 47.4595 56.984 46.8275 56.984C46.3395 56.984 45.9355 57.144 45.6155 57.464C45.2955 57.784 45.1355 58.22 45.1355 58.772C45.1355 59.324 45.2955 59.76 45.6155 60.08C45.9355 60.4 46.3395 60.56 46.8275 60.56C47.4675 60.56 47.9515 60.264 48.2795 59.672L49.7315 60.464C49.4995 60.976 49.1275 61.376 48.6155 61.664C48.1115 61.952 47.5195 62.096 46.8395 62.096ZM54.6864 55.448C55.4864 55.448 56.1304 55.688 56.6184 56.168C57.1144 56.648 57.3624 57.36 57.3624 58.304V62H55.4904V58.592C55.4904 58.08 55.3784 57.7 55.1544 57.452C54.9304 57.196 54.6064 57.068 54.1824 57.068C53.7104 57.068 53.3344 57.216 53.0544 57.512C52.7744 57.8 52.6344 58.232 52.6344 58.808V62H50.7624V53.096H52.6344V56.216C52.8824 55.968 53.1824 55.78 53.5344 55.652C53.8864 55.516 54.2704 55.448 54.6864 55.448Z" fill="#78CFBA"/>
<path d="M40.0023 32.3031L39.8651 31.8519H39.8602L40.0023 32.3031Z" fill="#56C6AB"/>
<path d="M48.9057 20.2289L48.9008 20.2388L48.9107 20.2289H48.9057Z" fill="#56C6AB"/>
<path d="M48.592 20.5861L48.9007 20.2383L48.9056 20.2289L48.592 20.5861Z" fill="#56C6AB"/>
<path d="M46.338 10.1567C44.4025 7.62344 42.5552 6.47664 40.8451 6.75394C38.2824 7.16754 37.126 10.6126 37.0476 10.857C36.8369 11.4492 36.6409 12.0649 36.4694 12.6947V12.7276V3.29004H32.5396V12.6336H32.5102C32.3436 12.0226 32.1574 11.4304 31.9516 10.8617C31.8732 10.6173 30.7119 7.17224 28.1541 6.75864C26.4391 6.48134 24.5967 7.62814 22.6612 10.1614C17.7318 16.6239 9.67624 32.4253 13.4051 39.6492C14.6742 42.1167 17.1634 43.4092 20.7943 43.475H21.2843C32.4269 43.475 33.2844 35.485 33.2893 35.4286C33.353 34.9586 34.4555 26.4422 33.5637 18.3253V18.283L34.4408 17.3853H34.5731L35.4502 18.283V18.3441C34.5584 26.4516 35.6658 34.9539 35.7246 35.4098C35.7246 35.4897 36.587 43.475 47.7345 43.475H48.2245C51.8554 43.3998 54.3446 42.112 55.6137 39.6492C59.323 32.4253 51.2674 16.6239 46.338 10.1567ZM32.3093 35.3346C32.3093 35.4098 31.5351 42.5444 21.2745 42.5397H20.8139C17.575 42.4739 15.3798 41.3647 14.2822 39.2497C10.666 32.2232 19.2606 16.2056 23.455 10.6972C24.9887 8.69034 26.4342 7.64224 27.6592 7.64224C27.7693 7.64291 27.8791 7.65234 27.9875 7.67044C29.9916 7.99474 31.0108 11.1014 31.0206 11.1296C31.555 12.6613 31.9533 14.2336 32.2113 15.8296V15.886C31.7213 16.4876 30.9079 17.531 30.0259 18.706C29.6354 18.667 29.2581 18.5477 28.9199 18.3563C28.5817 18.1649 28.2904 17.9059 28.0659 17.5968C27.6828 16.9046 27.5129 16.1222 27.5759 15.3408H27.6396H27.9336C28.7372 15.3408 30.0504 15.1528 30.6433 14.0201L29.7662 13.6018C29.3644 14.3726 28.2962 14.4243 27.7425 14.4008H27.7082C27.7852 13.9089 27.9015 13.4234 28.0561 12.9485L27.13 12.6477C27.081 12.784 25.9589 16.0223 27.2427 18.0809L27.3505 18.2454C26.7662 18.1652 26.1768 18.1244 25.5865 18.1232V18.0809C25.5962 17.4497 25.4707 16.8233 25.2178 16.2404C24.965 15.6575 24.5902 15.1306 24.1165 14.6922L23.4942 15.416C23.8641 15.7711 24.1547 16.1946 24.3485 16.6608C24.5422 17.1271 24.635 17.6262 24.6212 18.1279V18.2172C22.8816 18.3057 21.2078 18.8845 19.8094 19.881L20.4072 20.5672C21.4342 19.8632 22.6222 19.4055 23.8715 19.2324V19.2324C23.2639 19.9374 22.6563 20.9526 23.0924 21.8785L23.9793 21.5072C23.6216 20.7552 24.9103 19.4862 25.3905 19.1008C26.7187 19.0828 28.0415 19.2652 29.3105 19.6413V19.6413C28.0316 21.385 26.7968 23.2133 26.4636 24.1627L26.4293 24.2332C26.3068 24.4353 26.1794 24.6703 26.052 24.9335H26.0128C25.1899 24.854 24.3587 24.9241 23.5628 25.1403V25.1121C22.4113 23.547 19.2312 24.4353 18.8588 24.5481L19.1479 25.4458C19.8486 25.239 21.7841 24.8724 22.5779 25.4834L22.6073 25.5163C21.7719 25.9256 21.099 26.5859 20.6914 27.3963L21.5734 27.8005C22.4995 25.9487 24.5722 25.7842 25.6306 25.8312H25.6845C25.0057 27.6843 24.7859 29.6636 25.0426 31.6122L25.0083 31.6451C24.8662 31.7767 24.5183 32.1151 24.092 32.5851C22.8817 33.699 20.662 35.3205 18.4129 34.7612L18.1679 35.673C19.5316 35.9821 20.9665 35.791 22.1908 35.1372C21.4226 36.2686 20.9395 37.5559 20.7796 38.8972L21.7596 38.963C21.9115 36.8809 23.6706 34.592 24.8074 33.323C24.9642 33.1773 25.1014 33.041 25.2239 32.9188L25.2533 32.8906C25.3907 33.5566 25.569 34.2142 25.7874 34.8599C26.0667 35.7247 26.6155 38.2392 25.8364 39.4894L26.6743 39.9594C27.8405 38.0794 26.7674 34.7095 26.7184 34.5638C26.2642 33.2439 26.0085 31.8687 25.9589 30.4795V30.4043C26.6307 31.4574 27.6323 32.2799 28.8205 32.7543L29.1635 31.8472C29.0214 31.7955 25.8315 30.6252 26.3362 27.2036V27.1002C26.5705 26.2168 26.9247 25.3666 27.3897 24.5716V24.5434L27.6984 24.2285V24.2661C27.8895 25.1638 28.4432 26.1085 29.7172 26.2589L29.8397 25.3189C28.6245 25.1732 28.5804 23.7444 28.5951 23.312V23.2838L32.6033 19.1854V19.2277C33.0257 24.5939 32.9273 29.986 32.3093 35.3346V35.3346ZM35.4796 15.3972H33.5196V4.23004H35.4796V15.3972ZM54.717 39.2309C53.6194 41.36 51.4242 42.4692 48.1853 42.5209H47.7296C37.5131 42.5209 36.734 35.6119 36.7046 35.297C36.0725 29.9734 35.956 24.6049 36.3567 19.2606V19.1901L40.36 23.2791V23.312C40.36 23.735 40.36 25.192 39.1154 25.3236L39.2379 26.2636C40.5168 26.1085 41.0656 25.1685 41.2567 24.2661V24.2285L41.536 24.5152L41.5703 24.5716C42.0433 25.3663 42.4026 26.2184 42.6385 27.1049V27.1472C42.8846 28.1239 42.7331 29.1537 42.2151 30.027C41.6971 30.9002 40.8514 31.5512 39.8504 31.8472L40.1297 32.7449C41.3013 32.351 42.3086 31.6041 43.0011 30.6158V30.6581C42.9331 31.982 42.6792 33.291 42.2465 34.5497C42.2024 34.6907 41.1244 38.0747 42.2955 39.9406L43.1334 39.4706C42.3494 38.2204 42.9031 35.7106 43.1775 34.8458C43.3958 34.2001 43.5742 33.5425 43.7116 32.8765H43.741C43.8635 33.0034 44.0105 33.1444 44.1673 33.2901C45.3041 34.5638 47.0632 36.8433 47.2102 38.9301L48.2196 38.8972C48.0598 37.5559 47.5766 36.2686 46.8084 35.1372C48.0237 35.795 49.4506 35.996 50.8117 35.7012L50.5667 34.7894C48.3176 35.3487 46.093 33.7319 44.8827 32.6133C44.4319 32.1151 44.0791 31.772 43.9517 31.6498C44.2089 29.7031 43.9909 27.7256 43.3147 25.8735H43.349C44.4025 25.8265 46.4899 25.9863 47.416 27.8428L48.298 27.4386C47.8923 26.618 47.2154 25.9488 46.3723 25.5351V25.5351C47.1661 24.91 49.1212 25.2813 49.8023 25.4881L50.0914 24.5904C49.7141 24.4776 46.5291 23.5846 45.3825 25.1591V25.1826C44.5867 24.9666 43.7555 24.8965 42.9325 24.9758H42.8933C42.761 24.7032 42.6238 24.4588 42.5013 24.2473V24.2097C42.173 23.2697 40.9333 21.432 39.6544 19.6883C40.9378 19.3092 42.2759 19.1283 43.6185 19.1525V19.1525C44.1085 19.5661 45.3433 20.8022 44.9954 21.5401L45.8872 21.9302C46.3184 21.0137 45.7304 20.0126 45.1326 19.3123V19.2794C46.3759 19.4395 47.5617 19.8809 48.592 20.5672L48.9007 20.2194L48.592 20.5672L48.9056 20.2147L49.229 19.8528C47.8288 18.867 46.1571 18.2981 44.4221 18.2172V18.1796C44.409 17.6787 44.5021 17.1804 44.6959 16.7151C44.8896 16.2497 45.1799 15.8269 45.5491 15.4724L44.917 14.7392C44.443 15.1783 44.068 15.706 43.8152 16.2897C43.5623 16.8734 43.437 17.5006 43.447 18.1326V18.1655C42.8666 18.168 42.287 18.2088 41.7124 18.2877H41.6732L41.7957 18.0997C43.0795 16.0411 41.9525 12.8028 41.9084 12.6665L40.9823 12.9673C41.1389 13.4435 41.2569 13.9307 41.3351 14.4243H41.3008C40.7667 14.4478 39.674 14.4008 39.2722 13.6253L38.3951 14.0436C38.9684 15.1951 40.2865 15.3972 41.0852 15.3972H41.3841H41.4086C41.4701 16.1755 41.3002 16.9545 40.9186 17.6438C40.6939 17.9527 40.4026 18.2115 40.0644 18.4029C39.7262 18.5943 39.3491 18.7137 38.9586 18.753V18.753C38.0815 17.5827 37.2534 16.5393 36.7781 15.933V15.8672C37.0379 14.2711 37.4379 12.6988 37.9737 11.1672V11.1672C37.9737 11.1343 39.0027 8.02764 41.0068 7.70804C41.1153 7.68994 41.2251 7.68051 41.3351 7.67984C42.565 7.67984 44.0105 8.72794 45.5393 10.7348C49.7386 16.2056 58.3332 32.2232 54.717 39.2309Z" fill="#56C6AB"/>
<path d="M48.592 20.5861L48.9056 20.2289H48.9105L48.592 20.5861Z" fill="#56C6AB"/>
</svg>
