<svg width="92" height="92" viewBox="0 0 92 92" fill="none" xmlns="http://www.w3.org/2000/svg">
<g clip-path="url(#clip0)">
<path d="M35.4 11.6953C36.2595 6.48339 40.7175 2.70059 46 2.70059C51.2825 2.70059 55.7405 6.48339 56.6 11.6953L60.9204 37.8873C61.0129 38.4477 61.1154 39.0136 61.2248 39.569L63.8745 39.0464C63.7702 38.5183 63.6728 37.9805 63.5852 37.4478L59.2647 11.2559C58.1888 4.73377 52.6103 0 46 0C39.3897 0 33.8112 4.73377 32.7353 11.2559L32.0266 15.5511L34.6914 15.9905L35.4 11.6953Z" fill="#56C6AB"/>
<path d="M77.053 64.6796C70.9635 58.2095 66.6049 50.2338 64.4484 41.6148L61.8287 42.2703C64.0968 51.336 68.6813 59.7253 75.0864 66.5306C76.9376 68.4973 77.957 71.0679 77.957 73.7689C77.957 79.0192 74.1905 83.4093 69.0014 84.2076L60.4195 85.5278C60.6725 85.232 60.9099 84.9378 61.1303 84.6487C63.6359 81.3604 67.6043 79.3973 71.7456 79.3973V76.6967C66.7668 76.6967 61.9956 79.0575 58.9821 83.0121C58.0151 84.2814 56.9374 85.3589 55.7536 86.2458L55.6967 86.2546L55.7014 86.2856C53.0046 88.2878 49.7576 89.2994 46 89.2994C42.2424 89.2994 38.9954 88.2878 36.2984 86.2854L36.3031 86.2544L36.2462 86.2456C35.0624 85.3587 33.9847 84.281 33.0177 83.0119C30.0044 79.0575 25.2332 76.6967 20.2544 76.6967V79.3973C24.3957 79.3973 28.3641 81.3604 30.8697 84.6487C31.0901 84.9378 31.3275 85.232 31.5805 85.5278L22.9986 84.2076C20.7119 83.8556 18.651 82.7941 17.0385 81.1377L15.1035 83.0215C17.1286 85.1018 19.7166 86.4348 22.5879 86.8766L35.2304 88.8216C37.8707 90.6299 41.3906 92 46 92C50.6094 92 54.1293 90.6299 56.7696 88.8218L69.4121 86.8768C72.5412 86.3956 75.3997 84.8071 77.4609 82.4045C79.5222 80.0018 80.6575 76.9347 80.6575 73.7689C80.6575 70.3773 79.3775 67.1494 77.053 64.6796V64.6796Z" fill="#56C6AB"/>
<path d="M14.0431 73.7689C14.0431 71.0679 15.0624 68.4972 16.9134 66.5304C18.1384 65.2289 19.2925 63.8745 20.3765 62.4736H29.0763V59.773H22.3369C22.9388 58.8886 23.5142 57.9883 24.0619 57.0724H31.5969V54.3718H25.5746C28.2584 49.2423 30.122 43.6923 31.0796 37.8873L34.2519 18.6551L31.5872 18.2156L28.4149 37.4478C26.7241 47.6979 22.067 57.1145 14.9469 64.6796C12.6225 67.1494 11.3425 70.3773 11.3425 73.7689C11.3425 76.199 12.0079 78.5788 13.2671 80.6507L15.5748 79.2482C14.5727 77.5992 14.0431 75.7045 14.0431 73.7689V73.7689Z" fill="#56C6AB"/>
<path d="M34.2975 54.3718H36.9981V57.0724H34.2975V54.3718Z" fill="#56C6AB"/>
</g>
<defs>
<clipPath id="clip0">
<rect width="92" height="92" fill="white"/>
</clipPath>
</defs>
</svg>
